<svg width="500" height="439" viewBox="0 0 500 439" fill="none" xmlns="http://www.w3.org/2000/svg">
<g clip-path="url(#clip0)">
<path d="M167.163 103.2L167.863 206.5L161.463 210.1C157.963 212.1 146.063 218.9 135.063 225.1C124.063 231.3 114.763 236.8 114.463 237.3C114.163 237.8 113.563 238.1 113.163 238C112.663 237.9 95.9633 247 89.5633 251C87.8633 252 69.0633 262.6 60.5633 267.3C57.5633 269 52.1633 272.1 48.6633 274.2C45.2633 276.3 42.1633 278 41.9633 278C41.5633 278 6.66327 297.7 1.76327 300.7C0.563265 301.5 -0.236735 302.5 0.0632654 302.9C0.663265 304 68.9633 340 70.2633 340C70.7633 340 74.0633 338.3 77.6633 336.2C81.1633 334 101.863 321.8 123.563 309C225.363 249 231.063 245.5 231.263 243.6C231.363 242.6 231.663 232.9 231.963 222.1C232.363 211.3 232.863 197.5 233.063 191.5C233.263 185.4 233.763 172.4 234.063 162.5C234.363 152.6 234.863 139.5 235.063 133.5C235.563 121.3 236.463 92.4 237.063 72.5C237.263 65.3 237.763 53.6 238.063 46.5L238.663 33.5L222.863 26.1C214.163 22 200.063 15.3 191.563 11.2C176.163 3.79999 167.763 0 166.963 0C166.763 0 166.863 46.5 167.163 103.2Z" fill="#530100"/>
<path d="M303.563 13.1C288.463 20.2 272.563 27.7 268.263 29.8L260.363 33.4L260.963 50.9C262.963 107 263.663 125.6 264.563 154C265.163 171.3 266.063 196.7 266.563 210.3C267.163 223.9 267.563 237.4 267.563 240.3V245.5L273.863 249.1C280.963 253.2 359.963 299.8 372.163 307.1C376.663 309.8 380.763 312 381.363 312C381.963 312 382.563 312.4 382.763 312.8C383.063 313.6 394.863 321 395.863 321C396.163 321 398.363 322.3 400.763 323.9C403.163 325.4 407.063 327.9 409.563 329.2C412.063 330.6 417.363 333.7 421.263 336L428.563 340.3L434.763 337.1C438.263 335.4 449.163 329.7 459.063 324.5C468.963 319.3 482.163 312.4 488.363 309.2C494.463 306.1 499.563 303.2 499.563 302.9C499.563 302.3 477.163 289.2 456.563 277.8C450.863 274.6 430.563 263.1 428.563 262C425.063 260 363.763 225 360.063 223C357.863 221.8 351.463 218.1 345.863 214.9C340.263 211.6 335.263 209 334.763 209C331.663 209 331.463 205.9 331.563 142.4C331.563 107.2 331.863 60.8 332.163 39.2C332.563 17.4 332.363 0 331.963 0C331.463 0 318.663 5.9 303.563 13.1Z" fill="#530100"/>
<path d="M246.063 265C243.363 266.6 240.163 268.3 238.963 268.9C237.763 269.4 232.663 272.2 227.463 275.1C222.263 278 216.263 281.2 214.063 282.3C211.863 283.4 209.763 284.8 209.363 285.4C208.963 286 208.563 286.2 208.563 285.8C208.563 285.5 205.263 287 201.363 289.2C193.163 293.8 191.863 294.5 174.563 303.7C167.663 307.3 161.863 310.6 161.563 310.9C161.263 311.2 159.063 312.5 156.563 313.7C154.063 314.9 148.263 318 143.563 320.5C123.763 331.2 95.5633 346.6 89.5633 349.9C85.9633 351.9 80.8633 354.6 78.2633 356L73.4633 358.5V366C73.5633 380.7 72.5633 428.6 72.1633 433.7C71.8633 436.6 72.0633 439 72.5633 439C73.0633 439 76.9633 437 81.1633 434.5C85.2633 432 88.8633 430 89.1633 430C89.4633 430 127.363 409.1 132.563 406C133.363 405.5 145.063 399.1 158.563 391.7C172.063 384.3 187.363 375.9 192.563 373C197.763 370.1 204.563 366.4 207.563 364.7C210.563 363.1 221.463 357.1 231.763 351.4C242.063 345.7 250.963 341 251.463 341C252.463 341 273.263 353.1 296.363 367.2C302.463 370.9 307.763 374 307.963 374C308.163 374 313.063 376.9 318.963 380.5C324.763 384.1 329.763 387 330.063 387C330.363 387 332.963 388.5 335.863 390.4C338.663 392.2 355.663 402.4 373.563 413C391.463 423.6 408.563 433.8 411.563 435.6C414.663 437.5 417.363 439 417.763 439C418.763 439 419.463 432.6 420.563 412.5C421.163 402.6 421.863 391.8 422.063 388.5C422.263 385.2 422.763 377.5 423.063 371.4L423.563 360.2L407.863 351.4C389.663 341.1 386.763 339.5 384.063 338.1C382.963 337.5 379.963 335.8 377.363 334.3C371.863 331.1 318.963 300.7 313.063 297.4C310.863 296.1 307.963 294.5 306.563 293.8C297.863 289 253.863 263.6 253.163 262.9C251.763 261.7 251.663 261.7 246.063 265Z" fill="#530100"/>
</g>
<defs>
<clipPath id="clip0">
<rect width="500" height="439" fill="white"/>
</clipPath>
</defs>
</svg>
